<svg width="547" height="305" viewBox="0 0 547 305" fill="none" xmlns="http://www.w3.org/2000/svg">
<g clip-path="url(#clip0_127_85704)">
<path d="M184.989 72.4521V63.8549C184.989 63.0161 184.309 62.3283 183.462 62.3283H181.248C180.602 62.3283 180.023 61.8922 179.881 61.2547C179.117 57.9164 177.809 54.7795 176.047 51.9612C175.695 51.3993 175.762 50.6695 176.232 50.1998L177.792 48.6397C178.388 48.0442 178.388 47.0796 177.792 46.4841L171.711 40.4031C171.116 39.8076 170.151 39.8076 169.555 40.4031L168.004 41.9548C167.534 42.4245 166.804 42.4916 166.242 42.1393C163.416 40.3779 160.287 39.0695 156.949 38.3062C156.32 38.1636 155.875 37.5849 155.875 36.939V34.7331C155.875 33.8943 155.196 33.2065 154.349 33.2065H145.751C144.913 33.2065 144.225 33.8859 144.225 34.7331V36.939C144.225 37.5849 143.789 38.1636 143.151 38.3062C139.813 39.0695 136.676 40.3779 133.849 42.1393C133.287 42.4916 132.558 42.4245 132.088 41.9548L130.536 40.4031C129.941 39.8076 128.976 39.8076 128.381 40.4031L122.3 46.4841C121.704 47.0796 121.704 48.0442 122.3 48.6397L123.851 50.1914C124.321 50.6612 124.388 51.3909 124.036 51.9528C122.275 54.7795 120.974 57.908 120.203 61.2463C120.06 61.8754 119.481 62.3199 118.836 62.3199H116.621C115.783 62.3199 115.095 62.9993 115.095 63.8465V72.4438C115.095 73.2825 115.774 73.9703 116.621 73.9703H118.836C119.481 73.9703 120.06 74.4065 120.203 75.0439C120.966 78.3822 122.275 81.5192 124.036 84.3374C124.388 84.8994 124.321 85.6291 123.851 86.0988L122.291 87.6589C121.696 88.2544 121.696 89.219 122.291 89.8145L128.372 95.8955C128.968 96.491 129.932 96.491 130.528 95.8955L132.088 94.3354C132.558 93.8657 133.287 93.7986 133.849 94.1509C136.668 95.9123 139.805 97.2124 143.143 97.9756C143.772 98.1182 144.216 98.697 144.216 99.3428V101.557C144.216 102.396 144.896 103.084 145.743 103.084H154.34C155.179 103.084 155.867 102.404 155.867 101.557V99.3428C155.867 98.697 156.311 98.1182 156.94 97.9756C160.279 97.2124 163.407 95.9039 166.234 94.1509C166.796 93.7986 167.526 93.8657 167.995 94.3354L169.555 95.8955C170.151 96.491 171.116 96.491 171.711 95.8955L177.792 89.8145C178.388 89.219 178.388 88.2544 177.792 87.6589L176.232 86.0988C175.762 85.6291 175.695 84.8994 176.047 84.3374C177.809 81.5192 179.109 78.3822 179.881 75.0439C180.023 74.4149 180.602 73.9703 181.248 73.9703H183.462C184.301 73.9703 184.989 73.2909 184.989 72.4438V72.4521ZM150.063 92.3895C136.676 92.3895 125.839 81.5275 125.839 68.1409C125.839 54.7543 136.676 43.9175 150.063 43.9175C163.449 43.9175 174.286 54.7795 174.286 68.1409C174.286 81.5024 163.449 92.3895 150.063 92.3895Z" stroke="#DEE3FC" stroke-width="0.79" stroke-miterlimit="10"/>
<path d="M224.528 101.549V95.6942C224.528 95.1238 224.066 94.6541 223.488 94.6541H221.978C221.533 94.6541 221.147 94.3522 221.047 93.9244C220.527 91.6513 219.638 89.5125 218.438 87.5917C218.195 87.2059 218.245 86.711 218.564 86.3923L219.621 85.3355C220.023 84.9329 220.023 84.2702 219.621 83.8676L215.477 79.7242C215.075 79.3216 214.412 79.3216 214.01 79.7242L212.953 80.781C212.634 81.0997 212.139 81.1501 211.753 80.9068C209.832 79.7074 207.694 78.8183 205.421 78.2983C204.993 78.1976 204.691 77.8118 204.691 77.3672V75.8659C204.691 75.2955 204.23 74.8258 203.651 74.8258H197.788C197.218 74.8258 196.748 75.2871 196.748 75.8659V77.3672C196.748 77.8118 196.446 78.1976 196.018 78.2983C193.745 78.8183 191.606 79.7074 189.685 80.9068C189.3 81.1501 188.805 81.0997 188.486 80.781L187.429 79.7242C187.027 79.3216 186.364 79.3216 185.961 79.7242L181.818 83.8676C181.415 84.2702 181.415 84.9329 181.818 85.3355L182.875 86.3923C183.193 86.711 183.244 87.2059 183.001 87.5917C181.801 89.5125 180.912 91.6513 180.392 93.9244C180.291 94.3522 179.906 94.6541 179.461 94.6541H177.951C177.381 94.6541 176.911 95.1154 176.911 95.6942V101.549C176.911 102.119 177.372 102.589 177.951 102.589H179.461C179.906 102.589 180.291 102.891 180.392 103.319C180.912 105.592 181.801 107.73 183.001 109.651C183.244 110.037 183.193 110.532 182.875 110.851L181.818 111.907C181.415 112.31 181.415 112.973 181.818 113.375L185.961 117.519C186.364 117.921 187.027 117.921 187.429 117.519L188.494 116.453C188.813 116.135 189.308 116.084 189.694 116.328C191.615 117.527 193.753 118.416 196.026 118.936C196.454 119.037 196.756 119.423 196.756 119.867V121.377C196.756 121.947 197.218 122.417 197.796 122.417H203.659C204.23 122.417 204.699 121.956 204.699 121.377V119.867C204.699 119.423 205.001 119.037 205.429 118.936C207.702 118.416 209.841 117.527 211.762 116.328C212.147 116.084 212.642 116.135 212.961 116.453L214.026 117.519C214.429 117.921 215.092 117.921 215.494 117.519L219.638 113.375C220.04 112.973 220.04 112.31 219.638 111.907L218.572 110.842C218.254 110.523 218.203 110.029 218.447 109.643C219.646 107.722 220.535 105.583 221.055 103.31C221.156 102.882 221.542 102.58 221.986 102.58H223.496C224.066 102.58 224.536 102.119 224.536 101.54L224.528 101.549ZM200.724 114.206C192.118 114.206 185.148 107.219 185.148 98.6131C185.148 90.0074 192.118 83.0373 200.724 83.0373C209.329 83.0373 216.299 90.0241 216.299 98.6131C216.299 107.202 209.329 114.206 200.724 114.206Z" fill="#DEE3FC"/>
<path d="M114.206 256.678C115.776 256.678 117.049 255.405 117.049 253.834C117.049 252.264 115.776 250.991 114.206 250.991C112.635 250.991 111.362 252.264 111.362 253.834C111.362 255.405 112.635 256.678 114.206 256.678Z" fill="#A4AFFF"/>
<path d="M494.693 179.075C496.263 179.075 497.536 177.802 497.536 176.232C497.536 174.662 496.263 173.389 494.693 173.389C493.123 173.389 491.85 174.662 491.85 176.232C491.85 177.802 493.123 179.075 494.693 179.075Z" fill="#A4AFFF"/>
<path d="M489.014 77.6609C490.585 77.6609 491.858 76.3879 491.858 74.8175C491.858 73.2472 490.585 71.9741 489.014 71.9741C487.444 71.9741 486.171 73.2472 486.171 74.8175C486.171 76.3879 487.444 77.6609 489.014 77.6609Z" fill="#A4AFFF"/>
<path d="M386.895 42.1311C387.877 42.1311 388.674 41.3349 388.674 40.3529C388.674 39.3708 387.877 38.5747 386.895 38.5747C385.913 38.5747 385.117 39.3708 385.117 40.3529C385.117 41.3349 385.913 42.1311 386.895 42.1311Z" fill="#A4AFFF"/>
<path d="M125.32 16.6244C125.32 17.6057 124.523 18.4025 123.542 18.4025C122.56 18.4025 121.764 17.6057 121.764 16.6244C121.764 15.643 122.56 14.8462 123.542 14.8462C124.523 14.8462 125.32 15.643 125.32 16.6244Z" fill="#A4AFFF"/>
<path d="M164.75 126.326C164.75 127.307 163.953 128.104 162.972 128.104C161.99 128.104 161.193 127.307 161.193 126.326C161.193 125.344 161.99 124.548 162.972 124.548C163.953 124.548 164.75 125.344 164.75 126.326Z" fill="#A4AFFF"/>
<path d="M99.3933 256.678C99.3933 257.659 98.5964 258.456 97.6151 258.456C96.6337 258.456 95.8369 257.659 95.8369 256.678C95.8369 255.696 96.6337 254.899 97.6151 254.899C98.5964 254.899 99.3933 255.696 99.3933 256.678Z" fill="#A4AFFF"/>
<path d="M453.032 258.363C454.602 258.363 455.875 257.09 455.875 255.52C455.875 253.95 454.602 252.677 453.032 252.677C451.462 252.677 450.188 253.95 450.188 255.52C450.188 257.09 451.462 258.363 453.032 258.363Z" fill="#A4AFFF"/>
<path d="M513.423 258.363C514.993 258.363 516.266 257.09 516.266 255.52C516.266 253.95 514.993 252.677 513.423 252.677C511.852 252.677 510.579 253.95 510.579 255.52C510.579 257.09 511.852 258.363 513.423 258.363Z" fill="#A4AFFF"/>
<path d="M174.287 11.7176C175.857 11.7176 177.13 10.4445 177.13 8.87416C177.13 7.30379 175.857 6.03076 174.287 6.03076C172.716 6.03076 171.443 7.30379 171.443 8.87416C171.443 10.4445 172.716 11.7176 174.287 11.7176Z" fill="#A4AFFF"/>
<path d="M370.247 138.094C370.247 140.191 368.544 141.893 366.447 141.893C364.35 141.893 362.647 140.191 362.647 138.094C362.647 135.997 364.35 134.294 366.447 134.294C368.544 134.294 370.247 135.997 370.247 138.094Z" fill="#A4AFFF"/>
<path d="M89.9576 91.1062C89.9576 93.2031 88.2549 94.9058 86.158 94.9058C84.0611 94.9058 82.3584 93.2031 82.3584 91.1062C82.3584 89.0093 84.0611 87.3066 86.158 87.3066C88.2549 87.3066 89.9576 89.0093 89.9576 91.1062Z" fill="#A4AFFF"/>
<path d="M79.2716 28.4844H74.4823C74.1766 28.4844 73.9287 28.7322 73.9287 29.038V33.8273C73.9287 34.133 74.1766 34.3809 74.4823 34.3809H79.2716C79.5774 34.3809 79.8252 34.133 79.8252 33.8273V29.038C79.8252 28.7322 79.5774 28.4844 79.2716 28.4844Z" fill="white"/>
<path d="M87.1564 28.4844H82.3671C82.0613 28.4844 81.8135 28.7322 81.8135 29.038V33.8273C81.8135 34.133 82.0613 34.3809 82.3671 34.3809H87.1564C87.4621 34.3809 87.71 34.133 87.71 33.8273V29.038C87.71 28.7322 87.4621 28.4844 87.1564 28.4844Z" fill="white"/>
<path d="M95.0402 28.4844H90.2508C89.9451 28.4844 89.6973 28.7322 89.6973 29.038V33.8273C89.6973 34.133 89.9451 34.3809 90.2508 34.3809H95.0402C95.3459 34.3809 95.5938 34.133 95.5938 33.8273V29.038C95.5938 28.7322 95.3459 28.4844 95.0402 28.4844Z" fill="white"/>
<path d="M480.686 235.432H475.896C475.591 235.432 475.343 235.68 475.343 235.985V240.775C475.343 241.08 475.591 241.328 475.896 241.328H480.686C480.991 241.328 481.239 241.08 481.239 240.775V235.985C481.239 235.68 480.991 235.432 480.686 235.432Z" fill="#DEE3FC"/>
<path d="M488.57 235.432H483.781C483.475 235.432 483.228 235.68 483.228 235.985V240.775C483.228 241.08 483.475 241.328 483.781 241.328H488.57C488.876 241.328 489.124 241.08 489.124 240.775V235.985C489.124 235.68 488.876 235.432 488.57 235.432Z" fill="#DEE3FC"/>
<path d="M496.454 235.432H491.665C491.359 235.432 491.111 235.68 491.111 235.985V240.775C491.111 241.08 491.359 241.328 491.665 241.328H496.454C496.76 241.328 497.008 241.08 497.008 240.775V235.985C497.008 235.68 496.76 235.432 496.454 235.432Z" fill="#DEE3FC"/>
<path d="M116.27 232.203H111.48C111.175 232.203 110.927 232.45 110.927 232.756V237.545C110.927 237.851 111.175 238.099 111.48 238.099H116.27C116.575 238.099 116.823 237.851 116.823 237.545V232.756C116.823 232.45 116.575 232.203 116.27 232.203Z" fill="#DEE3FC"/>
<path d="M124.154 232.203H119.365C119.059 232.203 118.812 232.45 118.812 232.756V237.545C118.812 237.851 119.059 238.099 119.365 238.099H124.154C124.46 238.099 124.708 237.851 124.708 237.545V232.756C124.708 232.45 124.46 232.203 124.154 232.203Z" fill="#DEE3FC"/>
<path d="M132.038 232.203H127.249C126.943 232.203 126.695 232.45 126.695 232.756V237.545C126.695 237.851 126.943 238.099 127.249 238.099H132.038C132.344 238.099 132.592 237.851 132.592 237.545V232.756C132.592 232.45 132.344 232.203 132.038 232.203Z" fill="#DEE3FC"/>
<path d="M329.902 0.327148H216.417C206.527 0.327148 198.51 8.34463 198.51 18.2347V270.836C198.51 280.726 206.527 288.743 216.417 288.743H329.902C339.792 288.743 347.809 280.726 347.809 270.836V18.2347C347.809 8.34463 339.792 0.327148 329.902 0.327148Z" fill="#3945BA"/>
<path d="M329.323 2.86023H216.988C208.325 2.86023 201.303 9.88257 201.303 18.5451V268.965C201.303 277.628 208.325 284.65 216.988 284.65H329.323C337.985 284.65 345.008 277.628 345.008 268.965V18.5451C345.008 9.88257 337.985 2.86023 329.323 2.86023Z" fill="white"/>
<path d="M338.717 18.0501V268.177C338.717 274.04 333.961 278.796 328.099 278.796H218.212C212.35 278.796 207.594 274.04 207.594 268.177V18.0501C207.594 12.1872 212.35 7.4314 218.212 7.4314H236.539C237.554 7.4314 238.485 8.00175 238.938 8.916L240.884 12.7995C241.773 14.5944 243.602 15.7184 245.59 15.7184H300.713C302.701 15.7184 304.529 14.5944 305.418 12.7995L307.364 8.916C307.817 8.01014 308.748 7.4314 309.763 7.4314H328.09C333.953 7.4314 338.709 12.1872 338.709 18.0501H338.717Z" fill="#DEE3FC"/>
<path d="M296.292 11.164H251.897C250.865 11.164 250.026 10.3252 250.026 9.29353C250.026 8.26186 250.865 7.4231 251.897 7.4231H296.292C297.324 7.4231 298.163 8.26186 298.163 9.29353C298.163 10.3252 297.324 11.164 296.292 11.164Z" fill="#DEE3FC"/>
<path d="M321.28 221.181H222.482C218.6 221.181 215.453 224.328 215.453 228.21V263.094C215.453 266.976 218.6 270.123 222.482 270.123H321.28C325.161 270.123 328.308 266.976 328.308 263.094V228.21C328.308 224.328 325.161 221.181 321.28 221.181Z" stroke="#698BD1" stroke-linecap="round" stroke-linejoin="round"/>
<path d="M316.272 115.657H267.255C264.457 115.657 262.188 117.925 262.188 120.723V144.955C262.188 147.753 264.457 150.021 267.255 150.021H316.272C319.07 150.021 321.338 147.753 321.338 144.955V120.723C321.338 117.925 319.07 115.657 316.272 115.657Z" stroke="#698BD1" stroke-linecap="round" stroke-linejoin="round"/>
<path d="M326.815 158.266H225.594C222.258 158.266 219.555 160.97 219.555 164.305V206.998C219.555 210.333 222.258 213.037 225.594 213.037H326.815C330.151 213.037 332.854 210.333 332.854 206.998V164.305C332.854 160.97 330.151 158.266 326.815 158.266Z" fill="#4B5A9B"/>
<path d="M328.308 159.868V202.586C328.308 205.916 325.608 208.608 322.278 208.608H221.484C218.154 208.608 215.453 205.916 215.453 202.586V159.868C215.453 156.538 218.154 153.837 221.484 153.837H322.278C325.608 153.837 328.308 156.538 328.308 159.868Z" fill="#7F95F4"/>
<path d="M254.431 166.301H224.738C222.487 166.301 220.662 168.126 220.662 170.378V200.07C220.662 202.321 222.487 204.146 224.738 204.146H254.431C256.682 204.146 258.507 202.321 258.507 200.07V170.378C258.507 168.126 256.682 166.301 254.431 166.301Z" fill="white"/>
<path d="M289.634 171.09H263.481C262.768 171.09 262.189 170.512 262.189 169.799C262.189 169.086 262.768 168.507 263.481 168.507H289.634C290.347 168.507 290.925 169.086 290.925 169.799C290.925 170.512 290.347 171.09 289.634 171.09Z" fill="#B2C1F9"/>
<path d="M277.715 176.232H263.481C262.768 176.232 262.189 175.653 262.189 174.94C262.189 174.227 262.768 173.649 263.481 173.649H277.715C278.428 173.649 279.007 174.227 279.007 174.94C279.007 175.653 278.428 176.232 277.715 176.232Z" fill="#B2C1F9"/>
<path d="M321.464 176.232H282.948C282.235 176.232 281.656 175.653 281.656 174.94C281.656 174.227 282.235 173.649 282.948 173.649H321.464C322.177 173.649 322.756 174.227 322.756 174.94C322.756 175.653 322.177 176.232 321.464 176.232Z" fill="#B2C1F9"/>
<path d="M285.498 181.374H263.472C262.759 181.374 262.181 180.795 262.181 180.082C262.181 179.369 262.759 178.79 263.472 178.79H285.498C286.211 178.79 286.79 179.369 286.79 180.082C286.79 180.795 286.211 181.374 285.498 181.374Z" fill="#B2C1F9"/>
<path d="M304.194 181.374H290.346C289.633 181.374 289.062 180.795 289.062 180.082C289.062 179.369 289.641 178.79 290.346 178.79H304.194C304.907 178.79 305.477 179.369 305.477 180.082C305.477 180.795 304.898 181.374 304.194 181.374Z" fill="#B2C1F9"/>
<path d="M321.465 181.374H308.716C308.003 181.374 307.424 180.795 307.424 180.082C307.424 179.369 308.003 178.79 308.716 178.79H321.465C322.178 178.79 322.756 179.369 322.756 180.082C322.756 180.795 322.178 181.374 321.465 181.374Z" fill="#B2C1F9"/>
<path d="M321.464 186.515H263.472C262.759 186.515 262.181 185.937 262.181 185.224C262.181 184.511 262.759 183.932 263.472 183.932H321.464C322.177 183.932 322.756 184.511 322.756 185.224C322.756 185.937 322.177 186.515 321.464 186.515Z" fill="#B2C1F9"/>
<path d="M295.396 191.657H263.481C262.768 191.657 262.189 191.078 262.189 190.365C262.189 189.652 262.768 189.073 263.481 189.073H295.396C296.109 189.073 296.688 189.652 296.688 190.365C296.688 191.078 296.109 191.657 295.396 191.657Z" fill="#B2C1F9"/>
<path d="M321.464 191.657H300.537C299.824 191.657 299.245 191.078 299.245 190.365C299.245 189.652 299.824 189.073 300.537 189.073H321.464C322.177 189.073 322.756 189.652 322.756 190.365C322.756 191.078 322.177 191.657 321.464 191.657Z" fill="#B2C1F9"/>
<path d="M282.227 196.798H263.472C262.759 196.798 262.181 196.22 262.181 195.507C262.181 194.794 262.759 194.215 263.472 194.215H282.227C282.94 194.215 283.519 194.794 283.519 195.507C283.519 196.22 282.94 196.798 282.227 196.798Z" fill="#B2C1F9"/>
<path d="M306.056 196.798H287.301C286.589 196.798 286.01 196.22 286.01 195.507C286.01 194.794 286.589 194.215 287.301 194.215H306.056C306.769 194.215 307.348 194.794 307.348 195.507C307.348 196.22 306.769 196.798 306.056 196.798Z" fill="#B2C1F9"/>
<path d="M321.464 196.798H310.586C309.873 196.798 309.294 196.22 309.294 195.507C309.294 194.794 309.873 194.215 310.586 194.215H321.464C322.177 194.215 322.756 194.794 322.756 195.507C322.756 196.22 322.177 196.798 321.464 196.798Z" fill="#B2C1F9"/>
<path d="M289.634 201.94H263.481C262.768 201.94 262.189 201.361 262.189 200.648C262.189 199.935 262.768 199.357 263.481 199.357H289.634C290.347 199.357 290.925 199.935 290.925 200.648C290.925 201.361 290.347 201.94 289.634 201.94Z" fill="#B2C1F9"/>
<path d="M321.465 171.09H295.312C294.599 171.09 294.021 170.512 294.021 169.799C294.021 169.086 294.599 168.507 295.312 168.507H321.465C322.178 168.507 322.756 169.086 322.756 169.799C322.756 170.512 322.178 171.09 321.465 171.09Z" fill="#B2C1F9"/>
<path d="M328.308 159.868V161.663H215.453V159.868C215.453 156.538 218.154 153.837 221.484 153.837H322.278C325.608 153.837 328.308 156.538 328.308 159.868Z" fill="#3052CE"/>
<path d="M307.038 157.888C307.038 158.66 306.409 159.289 305.637 159.289C304.865 159.289 304.236 158.66 304.236 157.888C304.236 157.117 304.865 156.488 305.637 156.488C306.409 156.488 307.038 157.117 307.038 157.888Z" fill="#DEE3FC"/>
<path d="M314.184 157.888C314.184 158.66 313.555 159.289 312.784 159.289C312.012 159.289 311.383 158.66 311.383 157.888C311.383 157.117 312.012 156.488 312.784 156.488C313.555 156.488 314.184 157.117 314.184 157.888Z" fill="#DEE3FC"/>
<path d="M321.339 157.888C321.339 158.66 320.71 159.289 319.938 159.289C319.166 159.289 318.537 158.66 318.537 157.888C318.537 157.117 319.166 156.488 319.938 156.488C320.71 156.488 321.339 157.117 321.339 157.888Z" fill="#DEE3FC"/>
<path d="M250.387 115.69H228.051C224.739 115.69 222.054 118.375 222.054 121.687V144.024C222.054 147.336 224.739 150.021 228.051 150.021H250.387C253.699 150.021 256.384 147.336 256.384 144.024V121.687C256.384 118.375 253.699 115.69 250.387 115.69Z" stroke="#495AD6" stroke-width="0.9" stroke-miterlimit="10"/>
<path d="M233.863 127.894L228.923 132.835L233.905 137.825" stroke="#495AD6" stroke-width="1.67" stroke-linecap="round" stroke-linejoin="round"/>
<path d="M244.575 127.894L249.523 132.835L244.541 137.825" stroke="#495AD6" stroke-width="1.67" stroke-linecap="round" stroke-linejoin="round"/>
<path d="M241.538 127.894L236.908 137.825" stroke="#495AD6" stroke-width="1.67" stroke-linecap="round" stroke-linejoin="round"/>
<path d="M321.447 25.0371H222.314C218.525 25.0371 215.453 28.1089 215.453 31.8982V101.742C215.453 105.531 218.525 108.603 222.314 108.603H321.447C325.237 108.603 328.308 105.531 328.308 101.742V31.8982C328.308 28.1089 325.237 25.0371 321.447 25.0371Z" fill="#B2C1F9"/>
<path d="M305.453 63.4607C314.486 63.4607 321.808 56.1379 321.808 47.1049C321.808 38.0718 314.486 30.749 305.453 30.749C296.419 30.749 289.097 38.0718 289.097 47.1049C289.097 56.1379 296.419 63.4607 305.453 63.4607Z" fill="#F0F4FF"/>
<path d="M281.791 108.603H222.314C218.531 108.603 215.453 105.533 215.453 101.742V90.7456L241.48 45.6622C242.839 43.3053 246.244 43.3053 247.603 45.6622L267.255 79.6991L281.849 104.979C282.554 106.187 282.445 107.563 281.791 108.603Z" fill="white"/>
<path d="M307.44 108.603H250.563L267.255 79.6992L276.246 64.1234C277.471 62.0013 280.532 62.0013 281.757 64.1234L307.44 108.603Z" fill="#F0F4FF"/>
<path d="M420.253 238.384H376.402V304.277H420.253V238.384Z" fill="#3B47BC"/>
<path d="M420.244 304.269H437.036V238.376H420.244V304.269Z" fill="#495AD6"/>
<path d="M434.981 240.909H422.651V243.014H434.981V240.909Z" fill="#B2C1F9"/>
<path d="M434.981 245.43H422.651V247.535H434.981V245.43Z" fill="#B2C1F9"/>
<path d="M434.981 249.951H422.651V252.056H434.981V249.951Z" fill="#B2C1F9"/>
<path d="M434.981 254.463H422.651V256.569H434.981V254.463Z" fill="#B2C1F9"/>
<path d="M434.981 258.984H422.651V261.089H434.981V258.984Z" fill="#B2C1F9"/>
<path d="M434.981 263.497H422.651V265.602H434.981V263.497Z" fill="#B2C1F9"/>
<path d="M434.981 268.018H422.651V270.123H434.981V268.018Z" fill="#B2C1F9"/>
<path d="M434.981 272.539H422.651V274.644H434.981V272.539Z" fill="#B2C1F9"/>
<path d="M434.981 277.051H422.651V279.156H434.981V277.051Z" fill="#B2C1F9"/>
<path d="M434.981 281.572H422.651V283.677H434.981V281.572Z" fill="#B2C1F9"/>
<path d="M434.981 286.093H422.651V288.198H434.981V286.093Z" fill="#B2C1F9"/>
<path d="M434.981 290.605H422.651V292.711H434.981V290.605Z" fill="#B2C1F9"/>
<path d="M434.981 295.126H422.651V297.232H434.981V295.126Z" fill="#B2C1F9"/>
<path d="M434.981 299.639H422.651V301.744H434.981V299.639Z" fill="#B2C1F9"/>
<path d="M369.281 304.277H391.567C391.567 304.277 392.808 300.31 390.115 295.395C390.115 295.395 388.321 296.837 382.952 295.864C382.952 295.864 380.713 297.768 379.161 298.515C377.601 299.27 368.685 301.023 369.289 304.286L369.281 304.277Z" fill="#281616"/>
<path d="M370.833 241.437C372.276 250.026 378.91 279.081 381.77 296.242C386.987 296.686 389.495 296.091 390.821 295.781C390.561 289.792 390.049 275.474 390.108 269.2C390.208 258.59 390.703 244.599 386.031 236.916L370.321 238.149C370.414 238.98 370.506 239.651 370.581 240.137C370.657 240.599 370.741 241.026 370.833 241.429V241.437Z" fill="#002C54"/>
<path d="M328.97 304.277H351.256C351.256 304.277 352.497 300.31 349.805 295.395C349.805 295.395 348.01 296.837 342.642 295.864C342.642 295.864 340.402 297.768 338.851 298.515C337.291 299.27 328.375 301.023 328.979 304.286L328.97 304.277Z" fill="#281616"/>
<path d="M341.987 295.747C346.248 296.804 349.326 296.695 350.786 296.535C351.969 289.632 353.839 274.459 355.525 267.338C358.142 256.275 360.7 241.068 358.922 235.641L343.472 231.758C343.422 232.244 342.163 278.796 341.987 295.747Z" fill="#052635"/>
<path d="M403.485 215.922C403.175 212.869 402.814 210.638 402.814 210.638L385.553 214.865L370.891 218.204C365.456 219.411 358.889 220.871 353.101 222.179C346.601 223.656 342.29 228.587 343.715 235.096L345.343 242.989C354.426 242.863 397.153 238.77 400.801 236.925C404.928 234.836 406.17 227.472 403.485 215.922Z" fill="#052635"/>
<path d="M429.252 215.922C428.942 212.869 427.458 209.59 427.458 209.59L411.328 214.857L396.667 218.195C391.231 219.403 384.664 220.863 378.877 222.171C372.376 223.647 368.065 228.579 369.491 235.088L371.118 242.981C380.202 242.855 418.181 241.53 426.577 236.916C430.628 234.685 431.945 227.464 429.261 215.914L429.252 215.922Z" fill="#002C54"/>
<path d="M380.931 191.187C380.931 191.187 388.598 187.723 390.711 191.196C391.869 193.1 391.064 196.631 388.455 198.115C385.838 199.6 371.068 205.849 357.119 209.33C357.119 209.33 356.524 207.392 355.567 205.354C355.567 205.354 361.825 202.762 368.04 198.392C374.263 194.022 380.94 191.187 380.94 191.187H380.931Z" fill="#E5918F"/>
<path d="M382.852 167.241L376.284 193.485C376.284 193.485 376.964 200.12 383.665 196.866C390.367 193.611 394.804 172.701 394.804 172.701L382.852 167.241Z" fill="#E5918F"/>
<path d="M393.965 181.919C393.152 181.726 392.38 181.508 391.625 181.281C390.862 181.055 390.132 180.82 389.436 180.577C383.196 178.438 379.815 175.863 379.815 175.863C381.778 167.333 384.143 161.596 386.249 157.821C386.307 157.729 386.358 157.645 386.408 157.544C386.467 157.452 386.517 157.36 386.576 157.268C387.708 155.389 389.335 153.812 391.147 152.512C391.332 152.378 391.508 152.26 391.701 152.126L392.472 165.831L392.607 167.241L393.965 181.919Z" fill="white"/>
<path d="M393.966 181.919C393.152 181.726 392.381 181.508 391.626 181.281C390.862 181.055 390.133 180.82 389.437 180.577C390.745 171.35 391.936 165.546 391.936 165.546L392.607 167.241L393.966 181.919Z" fill="#C7E5F2"/>
<path d="M432.759 158.224C432.599 162.283 431.886 168.792 431.274 175.335C431.081 177.406 430.888 179.495 430.729 181.508C430.62 182.758 428.733 189.443 428.657 190.642C428.322 196.362 425.52 200.64 428.171 209.355C428.808 211.443 428.967 212.517 428.967 213.372C428.967 213.968 428.196 214.597 427.885 214.765C426.77 215.411 424.589 215.855 421.93 216.182H421.922C416.696 216.82 409.651 216.937 405.398 216.937C399.686 216.937 391.114 216.031 390.032 214.589C389.042 213.272 389.957 211.351 390.426 208.709C392.532 196.773 391.785 190.55 391.651 181.927C391.651 181.709 391.643 181.499 391.643 181.273C391.424 167.979 390.552 156.605 391.164 152.504C391.349 152.369 391.525 152.252 391.718 152.118C392.624 151.497 393.513 150.952 394.369 150.465C394.444 150.432 394.536 150.373 394.629 150.314C394.889 150.163 395.165 150.021 395.417 149.887C395.509 149.828 395.61 149.786 395.719 149.736C397.656 148.788 400.475 147.781 402.094 147.219C402.303 147.152 402.488 147.085 402.647 147.043C404.174 146.951 405.826 146.934 407.613 146.976C409.164 147.026 411.538 147.228 414.121 147.563H414.13C417.049 147.941 420.236 148.486 422.769 149.182C422.769 149.182 422.794 149.19 422.819 149.199C423.297 149.35 426.392 150.507 429.613 153.955C430.687 155.095 431.794 156.496 432.784 158.207L432.759 158.224Z" fill="white"/>
<path d="M428.17 209.355C428.808 211.443 428.967 212.517 428.967 213.372C428.967 213.968 428.195 214.597 427.885 214.765C426.77 215.411 424.589 215.855 421.93 216.182C423.02 216.048 424.907 214.32 424.907 212.752C424.907 211.653 423.49 204.255 423.876 199.483C424.27 194.718 425.042 187.128 423.565 181.047C422.081 174.974 420.688 166.981 420.688 166.981L429.017 172.013C429.017 172.013 430.091 173.514 431.274 175.343C431.081 177.415 430.888 179.503 430.728 181.516C430.619 182.766 425.511 200.648 428.17 209.363V209.355Z" fill="#C7E5F2"/>
<path d="M391.533 123.097C391.533 123.097 392.255 131.803 395.14 132.39C398.025 132.977 397.321 129.278 397.321 129.278L396.918 125.143L391.533 123.097Z" fill="#002C54"/>
<path d="M404.845 154.668C399.191 153.997 401.305 148.503 402.077 147.236C402.286 147.169 403.251 146.875 403.326 146.825C403.335 146.817 403.343 146.817 403.343 146.817C403.528 146.666 403.67 146.439 403.779 146.163C404.333 144.711 404.081 141.826 404.056 141.642V141.105C404.148 140.761 404.241 140.434 404.316 140.123L407.285 137.783L413.576 132.835C413.576 132.835 411.907 141.105 413.249 146.322C413.35 146.716 413.559 147.27 414.079 147.572C414.079 147.58 414.088 147.572 414.088 147.572C414.256 147.681 414.465 147.756 414.717 147.798C416.26 148.528 414.113 155.758 404.828 154.659L404.845 154.668Z" fill="#E5918F"/>
<path d="M409.836 138.094C409.836 138.094 409.785 143.613 403.788 146.154C404.342 144.711 404.09 141.826 404.073 141.642L406.581 139.671L409.836 138.102V138.094Z" fill="#CC6362"/>
<path d="M392.909 124.338C392.909 124.338 394.218 142.413 399.099 143.948C399.099 143.948 405.314 144.535 409.777 138.53C411.06 136.802 412.687 136.408 413.216 134.319C414.079 130.922 415.296 124.665 413.744 120.891C411.538 115.523 393.119 111.253 392.909 124.338Z" fill="#E5918F"/>
<path d="M413.828 117.913C413.744 114.633 410.422 113.401 410.422 113.401C407.118 111.849 400.24 112.52 393.152 114.105C391.492 114.474 389.403 113.459 388.246 114.264C386.845 115.237 388.246 119.683 388.246 119.683C390.98 127.961 401.037 125.269 404.065 124.246C404.786 126.376 404.694 129.337 406.48 130.872C407.504 131.744 409.273 131.769 411.085 131.467C411.303 131.887 412.142 132.264 412.31 132.843C412.88 134.781 412.796 137.808 412.779 140.14L413.635 139.721C413.744 139.092 422.568 118.19 413.836 117.913H413.828Z" fill="#002C54"/>
<path d="M397.916 130.419C398.168 131.92 397.43 133.296 396.264 133.497C395.098 133.699 393.94 132.642 393.689 131.14C393.437 129.639 394.175 128.263 395.341 128.062C396.507 127.861 397.665 128.918 397.916 130.419Z" stroke="white" stroke-width="0.5" stroke-miterlimit="10"/>
<path d="M403.813 129.32C404.064 130.822 403.326 132.197 402.16 132.398C400.994 132.6 399.837 131.543 399.585 130.042C399.334 128.54 400.072 127.165 401.238 126.963C402.404 126.762 403.561 127.819 403.813 129.32Z" stroke="white" stroke-width="0.5" stroke-miterlimit="10"/>
<path d="M397.916 130.419C397.916 130.419 398.176 130 399.535 130.117" stroke="white" stroke-width="0.5" stroke-miterlimit="10"/>
<path d="M403.863 129.681L408.904 128.876" stroke="white" stroke-width="0.5" stroke-miterlimit="10"/>
<path d="M409.273 135.275C412.745 136.609 413.827 128.062 410.531 127.685C408.031 127.399 407.931 130.889 407.931 130.889C407.931 130.889 407.293 134.52 409.273 135.284V135.275Z" fill="#E5918F"/>
<g opacity="0.5">
<path d="M410.423 128.968C410.423 128.968 410.196 129.203 409.995 129.58C409.785 129.958 409.609 130.478 409.575 131.04C409.542 131.316 409.55 131.602 409.567 131.87C409.575 132.138 409.609 132.398 409.626 132.617C409.651 132.843 409.668 133.036 409.684 133.17C409.701 133.304 409.701 133.388 409.701 133.388C409.701 133.388 409.651 133.329 409.575 133.212C409.508 133.095 409.382 132.935 409.29 132.717C409.19 132.499 409.089 132.239 409.039 131.945C408.971 131.652 408.955 131.325 408.98 130.989C409.013 130.662 409.097 130.335 409.231 130.05C409.366 129.765 409.559 129.538 409.735 129.371C410.112 129.043 410.439 128.976 410.439 128.976L410.423 128.968Z" fill="#CC6362"/>
<path d="M410.96 130.587C410.96 130.587 410.817 130.603 410.624 130.679C410.431 130.746 410.188 130.889 410.012 131.065C409.827 131.249 409.71 131.467 409.651 131.644C409.584 131.82 409.567 131.937 409.567 131.937L408.997 131.736C408.997 131.736 409.064 131.593 409.207 131.4C409.341 131.207 409.567 130.973 409.836 130.822C410.104 130.671 410.398 130.595 410.616 130.587C410.834 130.57 410.977 130.587 410.977 130.587H410.96Z" fill="#CC6362"/>
</g>
<path d="M442.647 194.643C441.12 196.421 435.333 197.713 432.548 195.264C431.676 194.483 430.686 192.429 429.713 189.879C427.247 183.362 424.907 173.607 424.907 173.607L437.866 166.989C437.866 166.989 439.535 174.462 440.969 181.567C440.969 181.567 440.986 181.642 441.011 181.768C441.481 184.041 441.917 186.28 442.253 188.201C442.27 188.251 442.27 188.302 442.278 188.352C442.622 190.642 442.84 193.032 442.655 194.651L442.647 194.643Z" fill="#E5918F"/>
<path d="M420.018 164.531C421.267 169.732 425.201 179.595 425.201 179.595C427.952 180.057 431.651 179.545 434.713 178.446C438.244 177.18 440.769 174.513 440.769 174.513C440.769 174.513 438.16 167.182 435.82 161.914C433.723 157.184 432.456 155.422 431.551 154.483C430.183 153.049 427.969 151.405 426.409 150.658L420.026 164.531H420.018Z" fill="white"/>
<path d="M436.398 167.928L428.799 164.649L422.811 149.216C422.811 149.216 423.909 149.551 425.352 150.13C425.352 150.13 425.444 150.163 425.545 150.205C425.578 150.222 425.62 150.23 425.654 150.256C426.946 150.86 431.953 153.812 435.426 164.54C435.451 164.632 435.484 164.724 435.509 164.808C435.878 166.041 436.147 167.039 436.298 167.551C436.315 167.601 436.323 167.652 436.34 167.702C436.357 167.769 436.373 167.844 436.398 167.92V167.928Z" fill="white"/>
<path d="M442.648 194.643C442.539 195.599 442.279 196.278 441.809 196.522C441.734 196.572 440.668 197.201 440.593 197.251C439.008 198.216 436.139 199.868 432.566 201.403C423.901 205.144 411.312 209.489 404.526 211.477C404.526 211.477 403.855 209.556 402.807 207.56C402.807 207.56 408.946 204.708 414.977 200.086C421.016 195.473 429.714 189.87 429.714 189.87L431.912 187.287C431.912 187.287 439.712 180.107 440.97 181.55C440.97 181.55 440.987 181.625 441.012 181.751C441.197 182.498 441.817 185.257 442.254 188.184C442.27 188.235 442.27 188.285 442.279 188.335C442.623 190.625 442.841 193.016 442.656 194.634L442.648 194.643Z" fill="#E5918F"/>
<path d="M403.704 207.124C403.704 207.124 402.177 208.046 400.625 207.719C399.762 207.535 399.418 207.191 398.78 207.073C398.143 206.964 396.448 206.755 395.61 206.344C394.771 205.933 394.444 205.882 394.477 206.729C394.503 207.568 396.163 208.298 396.608 208.533C397.052 208.768 397.623 209.514 397.681 209.606C397.74 209.699 394.922 211.175 394.167 210.873C394.167 210.873 393.941 211.552 394.066 211.93C394.192 212.307 394.771 212.441 394.821 212.634C394.863 212.827 394.687 213.213 394.821 213.515C394.947 213.817 395.467 213.817 395.677 214.312C395.886 214.807 395.66 214.807 395.811 215.318C395.962 215.83 396.616 215.922 396.742 216.182C396.868 216.442 396.801 216.753 397.078 216.937C397.354 217.122 399.887 216.308 400.81 215.905C401.733 215.511 404.207 211.946 406.941 210.739L403.72 207.124H403.704Z" fill="#E5918F"/>
<path d="M416.654 223.01H396.943V221.081H416.654C417.183 221.081 417.619 221.508 417.619 222.045C417.619 222.574 417.191 223.01 416.654 223.01Z" fill="#375F84"/>
<path d="M405.993 223.01H356.649C356.062 223.01 355.542 222.616 355.383 222.045L345.284 185.685C345.057 184.88 345.67 184.083 346.5 184.083H394.217C395.333 184.083 396.306 184.821 396.599 185.895L406.664 222.121C406.79 222.565 406.455 223.001 405.993 223.001V223.01Z" fill="#375F84"/>
<path d="M404.207 223.01H354.863C354.276 223.01 353.756 222.616 353.596 222.045L343.498 185.685C343.271 184.88 343.884 184.083 344.714 184.083H392.431C393.547 184.083 394.52 184.821 394.813 185.895L404.878 222.121C405.004 222.565 404.669 223.001 404.207 223.001V223.01Z" fill="#467CDB"/>
<path d="M208.625 199.516L214.345 193.653C214.345 193.653 214.547 191.036 214.857 190.491C215.167 189.937 215.973 187.899 216.375 187.673C216.778 187.446 217.575 187.673 217.575 187.673C217.575 187.673 218.371 187.404 218.724 187.404C219.076 187.404 219.747 187.731 219.747 187.731C219.747 187.731 220.602 187.673 220.955 187.673C221.307 187.673 221.424 187.773 221.424 187.773C221.424 187.773 222.8 186.188 223.471 185.651C224.142 185.114 225.157 184.133 225.459 184.142C225.744 184.142 225.87 184.645 225.66 185.182C225.451 185.718 224.545 186.574 224.545 186.574L221.945 190.525C221.945 190.525 222.389 190.348 222.624 190.197C222.859 190.046 224.452 188.562 224.545 188.503C224.637 188.444 225.35 187.966 225.769 188.444C226.189 188.922 223.043 192.68 222.54 193.192C222.037 193.703 219.151 195.163 219.151 195.163C219.151 195.163 216.098 200.648 215.805 201.001C215.511 201.353 208.625 199.516 208.625 199.516Z" fill="#E49191"/>
<path d="M214.002 172.466C214.002 172.466 210.806 190.961 207.803 191.388C207.803 191.388 195.809 191.875 193.133 177.314C190.818 164.691 200.112 161.998 204.465 162.963C208.81 163.927 214.941 164.557 214.01 172.458L214.002 172.466Z" fill="#E49191"/>
<path d="M203.399 188.436C203.399 188.436 201.722 190.701 201.126 196.186C201.126 196.186 196.127 196.899 191.522 194.525C191.522 194.525 194.005 186.784 194.307 178.379" fill="#E49191"/>
<path d="M200.019 159.876C193.46 161.327 193.988 165.412 193.988 165.412C190.918 166.175 190.256 167.442 190.281 173.103C190.306 178.773 192.353 185.576 193.485 186.129C194.617 186.683 201.025 186.708 201.562 186.515C202.099 186.322 204.339 181.122 203.819 180.208C203.299 179.293 203.844 175.695 205.337 175.561C206.83 175.427 206.536 177.742 206.536 177.742L207.761 177.473L208.709 175.15C217.373 175.662 219.612 165.789 219.612 165.789C217.532 164.431 206.57 158.434 200.011 159.876H200.019Z" fill="#002C54"/>
<path d="M127.231 285.086L133.857 286.043L131.66 293.784L124.48 291.973C124.48 291.973 121.561 288.014 125.973 285.086C126.183 284.944 126.879 285.011 127.231 285.086Z" fill="#E5918F"/>
<path d="M176.719 265.208L166.947 235.625C166.947 235.625 163.986 234.568 162.468 235.625C162.468 235.625 152.285 241.102 153.376 256.703C154.198 268.471 156.681 281.228 157.687 286.345L131.618 285.38C131.618 285.38 128.406 289.205 130.486 294.179C130.486 294.179 163.248 302.986 167.861 303.799C171.611 304.462 175.72 304.973 177.7 303.271C181.189 300.276 176.727 265.199 176.727 265.199L176.719 265.208Z" fill="black"/>
<path d="M158.106 285.086L164.732 286.043L162.535 293.784L155.355 291.973C155.355 291.973 152.436 288.014 156.848 285.086C157.058 284.944 157.754 285.011 158.106 285.086Z" fill="#E5918F"/>
<path d="M155.699 289.146C155.548 290.673 156.882 292.04 156.638 292.426C156.395 292.803 151.941 300.285 151.941 300.285C151.941 300.285 155.305 301.753 154.759 303.866H146.238C146.238 303.866 144.015 301.862 144.065 298.985C144.065 298.985 144.644 295.672 146.162 292.744C147.68 289.817 151.136 283.199 151.136 283.199C151.136 283.199 152.185 282.771 153.979 283.249C156.076 283.811 158.098 285.095 158.098 285.095C158.098 285.095 156.06 285.388 155.691 289.154L155.699 289.146Z" fill="#467CDB"/>
<path d="M223.949 297.064C221.843 289.213 202.057 255.705 195.355 246.654C181.6 240.682 166.947 235.616 166.947 235.616C160.882 237.067 157.896 249.28 161.335 257.424C163.692 263.01 178.656 277.068 187.823 285.346L162.392 285.313C162.392 285.313 159.398 289.792 162.115 294.044C162.115 294.044 204.406 303.657 208.113 304.202C211.82 304.747 220.149 304.202 220.149 304.202C220.149 304.202 225.719 303.665 223.949 297.055V297.064Z" fill="#002C54"/>
<path d="M124.833 289.146C124.682 290.673 126.015 292.04 125.772 292.426C125.529 292.803 121.075 300.285 121.075 300.285C121.075 300.285 124.438 301.753 123.893 303.866H115.371C115.371 303.866 113.149 301.862 113.199 298.985C113.199 298.985 113.778 295.672 115.296 292.744C116.814 289.817 120.27 283.199 120.27 283.199C120.27 283.199 121.318 282.771 123.113 283.249C125.21 283.811 127.232 285.095 127.232 285.095C127.232 285.095 125.193 285.388 124.824 289.154L124.833 289.146Z" fill="#467CDB"/>
<path d="M255.788 193.821L242.15 217.809L232.379 208.071L224.293 220.108L226.641 221.232L225.794 221.936C225.794 221.936 244.641 231.112 246.906 229.091C249.162 227.069 259.689 196.547 259.689 196.547L255.788 193.821Z" fill="#E49191"/>
<path d="M234.123 209.606C234.123 209.606 231.548 220.468 226.398 225.618L213.221 220.602C213.221 220.602 207.107 230.886 201.126 238.77C198.828 241.815 198.065 246.101 195.364 246.663C195.196 246.604 195.037 246.554 194.869 246.512C187.547 244.314 176.744 246.646 167.828 243.333C157.98 239.667 159.893 237.604 159.893 237.604C159.893 237.604 165.865 226.843 169.253 215.444C170.763 210.403 171.812 205.731 172.508 202.083C173.758 195.624 178.933 190.575 185.458 189.694C185.534 189.686 185.601 189.669 185.676 189.661C193.141 188.713 212.684 191.019 216.484 192.647C220.284 194.274 234.123 209.606 234.123 209.606Z" fill="#467CDB"/>
<path d="M213.221 220.602C213.221 220.602 207.107 230.886 201.127 238.77C198.828 241.815 198.065 246.101 195.364 246.663C196.547 246.243 198.51 240.02 199.206 238.619C199.91 237.227 201.026 235.826 203.442 230.936C205.849 226.038 209.12 218.858 209.12 218.858L213.221 220.602Z" fill="#5996EF"/>
<path d="M187.823 285.346C187.823 285.346 188.033 285.296 188.394 285.254C188.763 285.212 189.283 285.137 189.912 285.112C191.17 285.044 192.856 285.095 194.525 285.321C195.355 285.439 196.186 285.59 196.957 285.782C197.729 285.967 198.434 286.177 199.029 286.395C199.625 286.596 200.103 286.823 200.447 286.974C200.782 287.125 200.967 287.225 200.967 287.225C200.967 287.225 200.757 287.2 200.396 287.141C200.036 287.066 199.516 286.999 198.903 286.89C197.67 286.68 196.043 286.42 194.408 286.202C193.594 286.076 192.772 285.984 192 285.883C191.229 285.782 190.507 285.699 189.895 285.615C188.654 285.447 187.823 285.338 187.823 285.338V285.346Z" fill="black"/>
<path d="M265.979 184.997C265.761 184.972 264.36 186.096 263.689 186.649L264.469 185.156C264.469 185.156 265.501 184.167 265.87 183.622C266.239 183.076 266.046 182.531 265.753 182.498C265.551 182.481 264.318 183.454 263.606 184.033L263.765 183.731C263.765 183.731 264.797 182.741 265.166 182.196C265.535 181.65 265.342 181.105 265.048 181.08C264.755 181.055 262.389 183.034 262.389 183.034L261.24 184.578L262.113 182.892C262.113 182.892 262.574 182.33 262.876 181.726C263.178 181.114 262.96 180.929 262.792 180.728C262.624 180.526 261.031 181.709 260.62 182.187C260.217 182.665 258.925 184.586 258.825 184.854L257.491 187.606C257.407 186.809 257.273 185.442 257.181 184.569C257.046 183.32 255.906 183.018 255.872 183.63C255.83 184.242 255.201 187.237 255.344 188.864C255.486 190.491 255.763 191.556 255.864 192.47C255.964 193.385 255.017 195.213 255.017 195.213C255.017 195.213 258.816 197.57 259.437 196.866C260.066 196.161 261.4 194.593 262.045 193.536C262.935 192.085 263.53 190.181 263.53 190.181L264.713 187.648C264.713 187.648 265.744 186.658 266.113 186.113C266.482 185.567 266.29 185.022 265.996 184.997H265.979Z" fill="#E49191"/>
<path d="M483.847 108.603H439.343C436.491 108.603 434.176 110.918 434.176 113.77V124.288C434.176 126.921 436.147 129.094 438.688 129.412C439.057 129.463 439.343 129.773 439.343 130.151V135.904C439.343 136.24 439.77 136.374 439.963 136.106L444.501 129.765C444.644 129.563 444.87 129.454 445.113 129.454H483.856C486.707 129.454 489.022 127.139 489.022 124.288V113.77C489.022 110.918 486.707 108.603 483.856 108.603H483.847Z" stroke="white" stroke-width="0.9" stroke-miterlimit="10"/>
<path d="M446.17 119.012C446.17 119.951 445.407 120.714 444.467 120.714C443.528 120.714 442.765 119.951 442.765 119.012C442.765 118.072 443.528 117.309 444.467 117.309C445.407 117.309 446.17 118.072 446.17 119.012Z" stroke="white" stroke-width="0.9" stroke-miterlimit="10"/>
<path d="M454.733 119.012C454.733 119.951 453.97 120.714 453.031 120.714C452.091 120.714 451.328 119.951 451.328 119.012C451.328 118.072 452.091 117.309 453.031 117.309C453.97 117.309 454.733 118.072 454.733 119.012Z" stroke="white" stroke-width="0.9" stroke-miterlimit="10"/>
<path d="M463.289 119.012C463.289 119.951 462.526 120.714 461.586 120.714C460.647 120.714 459.884 119.951 459.884 119.012C459.884 118.072 460.647 117.309 461.586 117.309C462.526 117.309 463.289 118.072 463.289 119.012Z" stroke="white" stroke-width="0.9" stroke-miterlimit="10"/>
<path d="M471.853 119.012C471.853 119.951 471.089 120.714 470.15 120.714C469.211 120.714 468.447 119.951 468.447 119.012C468.447 118.072 469.211 117.309 470.15 117.309C471.089 117.309 471.853 118.072 471.853 119.012Z" stroke="white" stroke-width="0.9" stroke-miterlimit="10"/>
<path d="M480.417 119.012C480.417 119.951 479.654 120.714 478.714 120.714C477.775 120.714 477.012 119.951 477.012 119.012C477.012 118.072 477.775 117.309 478.714 117.309C479.654 117.309 480.417 118.072 480.417 119.012Z" stroke="white" stroke-width="0.9" stroke-miterlimit="10"/>
<path d="M132.155 154.701H176.659C179.511 154.701 181.826 157.016 181.826 159.868V170.386C181.826 173.02 179.855 175.192 177.314 175.511C176.944 175.561 176.659 175.871 176.659 176.249V182.003C176.659 182.338 176.232 182.472 176.039 182.204L171.501 175.863C171.358 175.662 171.132 175.553 170.889 175.553H132.146C129.294 175.553 126.979 173.238 126.979 170.386V159.868C126.979 157.016 129.294 154.701 132.146 154.701H132.155Z" stroke="white" stroke-width="0.9" stroke-miterlimit="10"/>
<path d="M169.832 165.102C169.832 166.041 170.595 166.804 171.535 166.804C172.474 166.804 173.237 166.041 173.237 165.102C173.237 164.162 172.474 163.399 171.535 163.399C170.595 163.399 169.832 164.162 169.832 165.102Z" stroke="white" stroke-width="0.9" stroke-miterlimit="10"/>
<path d="M161.269 165.102C161.269 166.041 162.032 166.804 162.971 166.804C163.911 166.804 164.674 166.041 164.674 165.102C164.674 164.162 163.911 163.399 162.971 163.399C162.032 163.399 161.269 164.162 161.269 165.102Z" stroke="white" stroke-width="0.9" stroke-miterlimit="10"/>
<path d="M152.705 165.102C152.705 166.041 153.468 166.804 154.408 166.804C155.347 166.804 156.11 166.041 156.11 165.102C156.11 164.162 155.347 163.399 154.408 163.399C153.468 163.399 152.705 164.162 152.705 165.102Z" stroke="white" stroke-width="0.9" stroke-miterlimit="10"/>
<path d="M144.141 165.102C144.141 166.041 144.904 166.804 145.843 166.804C146.783 166.804 147.546 166.041 147.546 165.102C147.546 164.162 146.783 163.399 145.843 163.399C144.904 163.399 144.141 164.162 144.141 165.102Z" stroke="white" stroke-width="0.9" stroke-miterlimit="10"/>
<path d="M135.577 165.102C135.577 166.041 136.34 166.804 137.28 166.804C138.219 166.804 138.983 166.041 138.983 165.102C138.983 164.162 138.219 163.399 137.28 163.399C136.34 163.399 135.577 164.162 135.577 165.102Z" stroke="white" stroke-width="0.9" stroke-miterlimit="10"/>
<path d="M400.953 84.3457H319.828C315.357 84.3457 311.726 80.7223 311.726 76.2433C311.726 71.7727 315.349 68.1409 319.828 68.1409H400.953C405.424 68.1409 409.055 71.7643 409.055 76.2433C409.055 80.7139 405.432 84.3457 400.953 84.3457Z" fill="white" stroke="#495AD6" stroke-width="0.9" stroke-miterlimit="10"/>
<path d="M399.762 75.6898C399.762 78.0718 397.833 80.001 395.451 80.001C393.069 80.001 391.14 78.0718 391.14 75.6898C391.14 73.3077 393.069 71.3785 395.451 71.3785C397.833 71.3785 399.762 73.3077 399.762 75.6898Z" stroke="#495AD6" stroke-width="1.67" stroke-miterlimit="10"/>
<path d="M398.495 78.7345L400.877 81.1082" stroke="#495AD6" stroke-width="1.67" stroke-miterlimit="10" stroke-linecap="round"/>
<path d="M278.065 271.331H257.658C254.087 271.331 251.191 274.226 251.191 277.798V298.205C251.191 301.776 254.087 304.671 257.658 304.671H278.065C281.637 304.671 284.532 301.776 284.532 298.205V277.798C284.532 274.226 281.637 271.331 278.065 271.331Z" fill="#193091"/>
<path d="M271.993 271.331H251.586C248.014 271.331 245.119 274.226 245.119 277.798V298.205C245.119 301.776 248.014 304.671 251.586 304.671H271.993C275.565 304.671 278.46 301.776 278.46 298.205V277.798C278.46 274.226 275.565 271.331 271.993 271.331Z" fill="#495AD6"/>
<path d="M257.843 281.706L267.413 287.234C268 287.578 268 288.425 267.413 288.769L257.843 294.296C257.256 294.64 256.518 294.212 256.518 293.533V282.486C256.518 281.807 257.256 281.379 257.843 281.723V281.706Z" fill="white"/>
<path d="M489.165 261.089H462.493C457.823 261.089 454.038 264.875 454.038 269.544V296.217C454.038 300.886 457.823 304.671 462.493 304.671H489.165C493.835 304.671 497.62 300.886 497.62 296.217V269.544C497.62 264.875 493.835 261.089 489.165 261.089Z" fill="#193091"/>
<path d="M481.222 261.089H454.549C449.88 261.089 446.095 264.875 446.095 269.544V296.217C446.095 300.886 449.88 304.671 454.549 304.671H481.222C485.891 304.671 489.677 300.886 489.677 296.217V269.544C489.677 264.875 485.891 261.089 481.222 261.089Z" fill="#495AD6"/>
<path d="M473.12 271.775C473.12 274.669 470.78 277.009 467.886 277.009C464.992 277.009 462.652 274.661 462.652 271.775C462.652 268.89 464.992 266.541 467.886 266.541C470.78 266.541 473.12 268.89 473.12 271.775Z" fill="white"/>
<path d="M478.798 289.507V297.24C478.798 297.936 478.236 298.507 477.531 298.507H458.231C457.535 298.507 456.965 297.936 456.965 297.24V289.507C456.965 283.476 461.855 278.594 467.877 278.594C473.908 278.594 478.789 283.484 478.789 289.507H478.798Z" fill="white"/>
<path d="M370.421 93.6813H353.285C352.572 93.6813 352.002 93.1025 352.002 92.3896C352.002 91.6766 352.581 91.0979 353.285 91.0979H370.421C371.134 91.0979 371.713 91.6766 371.713 92.3896C371.713 93.1025 371.134 93.6813 370.421 93.6813Z" fill="#F0F4FF"/>
<path d="M387.566 93.6813H375.169C374.456 93.6813 373.877 93.1025 373.877 92.3896C373.877 91.6766 374.456 91.0979 375.169 91.0979H387.566C388.278 91.0979 388.857 91.6766 388.857 92.3896C388.857 93.1025 388.278 93.6813 387.566 93.6813Z" fill="#F0F4FF"/>
<path d="M360.566 99.3429H353.285C352.572 99.3429 352.002 98.7642 352.002 98.0512C352.002 97.3383 352.581 96.7595 353.285 96.7595H360.566C361.279 96.7595 361.857 97.3383 361.857 98.0512C361.857 98.7642 361.279 99.3429 360.566 99.3429Z" fill="#F0F4FF"/>
<path d="M387.565 99.3429H364.893C364.18 99.3429 363.602 98.7642 363.602 98.0512C363.602 97.3383 364.18 96.7595 364.893 96.7595H387.565C388.278 96.7595 388.857 97.3383 388.857 98.0512C388.857 98.7642 388.278 99.3429 387.565 99.3429Z" fill="#F0F4FF"/>
<path d="M375.873 105.005H353.285C352.572 105.005 352.002 104.426 352.002 103.713C352.002 103 352.581 102.421 353.285 102.421H375.873C376.586 102.421 377.165 103 377.165 103.713C377.165 104.426 376.586 105.005 375.873 105.005Z" fill="#F0F4FF"/>
<path d="M387.565 105.005H380.285C379.572 105.005 378.993 104.426 378.993 103.713C378.993 103 379.572 102.421 380.285 102.421H387.565C388.278 102.421 388.857 103 388.857 103.713C388.857 104.426 388.278 105.005 387.565 105.005Z" fill="#F0F4FF"/>
<path d="M153.451 188.579H93.6308C91.8613 188.579 90.4268 190.013 90.4268 191.783V221.986C90.4268 223.756 91.8613 225.191 93.6308 225.191H153.451C155.221 225.191 156.655 223.756 156.655 221.986V191.783C156.655 190.013 155.221 188.579 153.451 188.579Z" fill="#193091"/>
<path d="M93.2363 193.527H153.837" stroke="white" stroke-width="0.9" stroke-miterlimit="10" stroke-linecap="round"/>
<path d="M152.243 191.741C152.646 191.741 152.973 191.414 152.973 191.011C152.973 190.608 152.646 190.281 152.243 190.281C151.84 190.281 151.514 190.608 151.514 191.011C151.514 191.414 151.84 191.741 152.243 191.741Z" fill="white"/>
<path d="M148.41 191.741C148.813 191.741 149.14 191.414 149.14 191.011C149.14 190.608 148.813 190.281 148.41 190.281C148.007 190.281 147.681 190.608 147.681 191.011C147.681 191.414 148.007 191.741 148.41 191.741Z" fill="white"/>
<path d="M144.586 191.749C144.993 191.749 145.324 191.419 145.324 191.011C145.324 190.603 144.993 190.273 144.586 190.273C144.178 190.273 143.848 190.603 143.848 191.011C143.848 191.419 144.178 191.749 144.586 191.749Z" fill="white"/>
<path d="M104.534 198.451H94.2512C93.6893 198.451 93.2363 197.998 93.2363 197.436C93.2363 196.874 93.6893 196.421 94.2512 196.421H104.534C105.096 196.421 105.549 196.874 105.549 197.436C105.549 197.998 105.096 198.451 104.534 198.451Z" fill="#6589D1"/>
<path d="M104.534 203.139H94.2512C93.6893 203.139 93.2363 202.687 93.2363 202.125C93.2363 201.563 93.6893 201.11 94.2512 201.11H104.534C105.096 201.11 105.549 201.563 105.549 202.125C105.549 202.687 105.096 203.139 104.534 203.139Z" fill="#6589D1"/>
<path d="M104.534 207.82H94.2512C93.6893 207.82 93.2363 207.367 93.2363 206.805C93.2363 206.243 93.6893 205.79 94.2512 205.79H104.534C105.096 205.79 105.549 206.243 105.549 206.805C105.549 207.367 105.096 207.82 104.534 207.82Z" fill="#6589D1"/>
<path d="M104.534 212.5H94.2512C93.6893 212.5 93.2363 212.047 93.2363 211.485C93.2363 210.923 93.6893 210.47 94.2512 210.47H104.534C105.096 210.47 105.549 210.923 105.549 211.485C105.549 212.047 105.096 212.5 104.534 212.5Z" fill="#6589D1"/>
<path d="M104.534 217.189H94.2512C93.6893 217.189 93.2363 216.736 93.2363 216.174C93.2363 215.612 93.6893 215.159 94.2512 215.159H104.534C105.096 215.159 105.549 215.612 105.549 216.174C105.549 216.736 105.096 217.189 104.534 217.189Z" fill="#6589D1"/>
<path d="M104.534 221.869H94.2512C93.6893 221.869 93.2363 221.416 93.2363 220.854C93.2363 220.292 93.6893 219.839 94.2512 219.839H104.534C105.096 219.839 105.549 220.292 105.549 220.854C105.549 221.416 105.096 221.869 104.534 221.869Z" fill="#6589D1"/>
<path d="M152.831 198.451H108.519C107.957 198.451 107.504 197.998 107.504 197.436C107.504 196.874 107.957 196.421 108.519 196.421H152.831C153.393 196.421 153.845 196.874 153.845 197.436C153.845 197.998 153.393 198.451 152.831 198.451Z" fill="#3B5FB7"/>
<path d="M152.831 203.139H108.519C107.957 203.139 107.504 202.687 107.504 202.125C107.504 201.563 107.957 201.11 108.519 201.11H152.831C153.393 201.11 153.845 201.563 153.845 202.125C153.845 202.687 153.393 203.139 152.831 203.139Z" fill="#3B5FB7"/>
<path d="M152.831 207.82H108.519C107.957 207.82 107.504 207.367 107.504 206.805C107.504 206.243 107.957 205.79 108.519 205.79H152.831C153.393 205.79 153.845 206.243 153.845 206.805C153.845 207.367 153.393 207.82 152.831 207.82Z" fill="#3B5FB7"/>
<path d="M152.831 212.5H108.519C107.957 212.5 107.504 212.047 107.504 211.485C107.504 210.923 107.957 210.47 108.519 210.47H152.831C153.393 210.47 153.845 210.923 153.845 211.485C153.845 212.047 153.393 212.5 152.831 212.5Z" fill="#3B5FB7"/>
<path d="M152.831 217.189H108.519C107.957 217.189 107.504 216.736 107.504 216.174C107.504 215.612 107.957 215.159 108.519 215.159H152.831C153.393 215.159 153.845 215.612 153.845 216.174C153.845 216.736 153.393 217.189 152.831 217.189Z" fill="#3B5FB7"/>
<path d="M152.831 221.869H108.519C107.957 221.869 107.504 221.416 107.504 220.854C107.504 220.292 107.957 219.839 108.519 219.839H152.831C153.393 219.839 153.845 220.292 153.845 220.854C153.845 221.416 153.393 221.869 152.831 221.869Z" fill="#3B5FB7"/>
<path d="M463.939 33.9385C467.447 19.293 458.418 4.57672 443.772 1.06876C429.127 -2.43921 414.41 6.58951 410.903 21.235C407.395 35.8805 416.423 50.5968 431.069 54.1048C445.714 57.6127 460.431 48.584 463.939 33.9385Z" stroke="#DEE3FC" stroke-width="0.79" stroke-miterlimit="10"/>
<path d="M447.027 49.2562C458.998 43.9587 464.408 29.9597 459.111 17.9884C453.813 6.01712 439.814 0.606882 427.843 5.90433C415.872 11.2018 410.461 25.2009 415.759 37.1721C421.056 49.1434 435.055 54.5536 447.027 49.2562Z" fill="#3945BA"/>
<path d="M439.594 27.5953C439.594 28.7864 438.63 29.7509 437.439 29.7509C436.248 29.7509 435.283 28.7864 435.283 27.5953C435.283 26.4043 436.248 25.4397 437.439 25.4397C438.63 25.4397 439.594 26.4043 439.594 27.5953Z" fill="white"/>
<path d="M437.204 27.1676C436.877 27.3521 436.466 27.2263 436.29 26.9076L429.32 14.3345C429.135 14.0074 429.253 13.5964 429.58 13.4203C429.907 13.2358 430.318 13.3532 430.494 13.6803L437.464 26.2533C437.649 26.5805 437.531 26.9914 437.204 27.1676Z" fill="white"/>
<path d="M437.783 27.9392C438.043 27.6791 438.471 27.6791 438.739 27.9392L444.77 33.9698C445.03 34.2299 445.03 34.6576 444.77 34.926C444.51 35.186 444.082 35.186 443.814 34.926L437.783 28.8953C437.523 28.6353 437.523 28.2076 437.783 27.9392Z" fill="white"/>
<path d="M437.59 8.62258V5.89661" stroke="white" stroke-width="2" stroke-miterlimit="10" stroke-linecap="round"/>
<path d="M456.412 27.7379H459.138" stroke="white" stroke-width="2" stroke-miterlimit="10" stroke-linecap="round"/>
<path d="M437.296 46.5681V49.2941" stroke="white" stroke-width="2" stroke-miterlimit="10" stroke-linecap="round"/>
<path d="M418.466 27.4528H415.74" stroke="white" stroke-width="2" stroke-miterlimit="10" stroke-linecap="round"/>
<g opacity="0.5">
<path d="M428.079 11.0885L426.72 8.73157" stroke="#DEE3FC" stroke-miterlimit="10" stroke-linecap="round"/>
<path d="M453.945 18.2348L456.302 16.876" stroke="#DEE3FC" stroke-miterlimit="10" stroke-linecap="round"/>
<path d="M446.8 44.1021L448.167 46.459" stroke="#DEE3FC" stroke-miterlimit="10" stroke-linecap="round"/>
<path d="M420.94 36.9558L418.575 38.323" stroke="#DEE3FC" stroke-miterlimit="10" stroke-linecap="round"/>
</g>
<g opacity="0.5">
<path d="M421.083 17.9831L418.718 16.6243" stroke="#DEE3FC" stroke-miterlimit="10" stroke-linecap="round"/>
<path d="M447.051 11.2395L448.418 8.87415" stroke="#DEE3FC" stroke-miterlimit="10" stroke-linecap="round"/>
<path d="M453.795 37.2075L456.16 38.5663" stroke="#DEE3FC" stroke-miterlimit="10" stroke-linecap="round"/>
<path d="M427.827 43.9512L426.468 46.3165" stroke="#DEE3FC" stroke-miterlimit="10" stroke-linecap="round"/>
</g>
<path d="M113.5 118.811H83.565C79.1319 118.811 75.5381 122.404 75.5381 126.837V156.773C75.5381 161.206 79.1319 164.8 83.565 164.8H113.5C117.934 164.8 121.527 161.206 121.527 156.773V126.837C121.527 122.404 117.934 118.811 113.5 118.811Z" fill="#193091"/>
<path d="M111.53 114.826H78.4069C74.8539 114.826 71.9736 117.707 71.9736 121.26V154.382C71.9736 157.935 74.8539 160.816 78.4069 160.816H111.53C115.083 160.816 117.963 157.935 117.963 154.382V121.26C117.963 117.707 115.083 114.826 111.53 114.826Z" fill="#7E89FD" stroke="#DEE3FC" stroke-miterlimit="10"/>
<path d="M102.933 132.558H102.69V129.924C102.69 125.596 99.1751 122.082 94.8471 122.082C90.5191 122.082 87.0047 125.596 87.0047 129.924V132.558H86.9544C85.7382 132.558 84.7568 133.539 84.7568 134.755V144.686C84.7568 145.902 85.7382 146.884 86.9544 146.884H102.933C104.149 146.884 105.13 145.902 105.13 144.686V134.755C105.13 133.539 104.149 132.558 102.933 132.558ZM88.9926 129.924C88.9926 126.695 91.6179 124.07 94.8471 124.07C98.0764 124.07 100.702 126.695 100.702 129.924V132.558H88.9926V129.924Z" fill="#DEE3FC"/>
<path d="M97.5312 137.657C97.5312 136.072 96.0885 134.822 94.4445 135.15C93.4799 135.342 92.6747 136.139 92.4734 137.104C92.2302 138.27 92.7838 139.335 93.6812 139.863C93.8658 139.972 93.9664 140.174 93.9161 140.375L93.4716 142.019C93.2032 142.992 93.9413 143.957 94.9562 143.957C95.9711 143.957 96.7008 142.992 96.4408 142.019L96.0046 140.392C95.9459 140.182 96.0549 139.981 96.2395 139.872C97.0111 139.436 97.5395 138.605 97.5395 137.649L97.5312 137.657Z" fill="#7E89FD"/>
<path d="M104.191 150.365H85.705C85.185 150.365 84.7656 149.945 84.7656 149.425C84.7656 148.905 85.185 148.486 85.705 148.486H104.191C104.711 148.486 105.131 148.905 105.131 149.425C105.131 149.945 104.711 150.365 104.191 150.365Z" fill="#DEE3FC"/>
<path d="M104.191 153.569H85.705C85.185 153.569 84.7656 153.149 84.7656 152.629C84.7656 152.109 85.185 151.69 85.705 151.69H104.191C104.711 151.69 105.131 152.109 105.131 152.629C105.131 153.149 104.711 153.569 104.191 153.569Z" fill="#DEE3FC"/>
<path d="M458.156 191.791H475.778C478.387 191.791 480.5 193.905 480.5 196.513V214.136C480.5 216.744 478.387 218.858 475.778 218.858H458.156C455.547 218.858 453.434 216.744 453.434 214.136V196.513C453.434 193.905 455.547 191.791 458.156 191.791Z" fill="#193091"/>
<path d="M474.62 189.443H455.111C453.022 189.443 451.328 191.136 451.328 193.225V212.735C451.328 214.824 453.022 216.518 455.111 216.518H474.62C476.71 216.518 478.403 214.824 478.403 212.735V193.225C478.403 191.136 476.71 189.443 474.62 189.443Z" fill="#7E89FD" stroke="#DEE3FC" stroke-miterlimit="10"/>
<path d="M459.397 211.066C459.322 211.066 459.246 211.057 459.171 211.032C458.726 210.906 458.466 210.445 458.592 210.001L462.685 195.507C462.811 195.062 463.281 194.802 463.717 194.928C464.162 195.054 464.422 195.515 464.296 195.96L460.203 210.454C460.102 210.823 459.758 211.066 459.397 211.066Z" fill="white"/>
<path d="M466.241 211.066C466.166 211.066 466.09 211.057 466.015 211.032C465.57 210.906 465.31 210.445 465.436 210.001L469.529 195.507C469.655 195.062 470.125 194.802 470.561 194.928C471.005 195.054 471.265 195.515 471.14 195.96L467.046 210.454C466.946 210.823 466.602 211.066 466.241 211.066Z" fill="white"/>
<path d="M472.113 200.531H457.619C457.158 200.531 456.78 200.154 456.78 199.692C456.78 199.231 457.158 198.853 457.619 198.853H472.113C472.574 198.853 472.952 199.231 472.952 199.692C472.952 200.154 472.574 200.531 472.113 200.531Z" fill="white"/>
<path d="M472.113 207.157H457.619C457.158 207.157 456.78 206.78 456.78 206.318C456.78 205.857 457.158 205.48 457.619 205.48H472.113C472.574 205.48 472.952 205.857 472.952 206.318C472.952 206.78 472.574 207.157 472.113 207.157Z" fill="white"/>
<path d="M148.913 132.86H138.428C137.791 132.86 137.279 132.348 137.279 131.711C137.279 131.073 137.791 130.562 138.428 130.562H148.913C149.55 130.562 150.062 131.073 150.062 131.711C150.062 132.348 149.55 132.86 148.913 132.86Z" fill="#F0F4FF"/>
<path d="M159.473 137.959H138.428C137.791 137.959 137.279 137.448 137.279 136.81C137.279 136.173 137.791 135.661 138.428 135.661H159.473C160.11 135.661 160.622 136.173 160.622 136.81C160.622 137.448 160.11 137.959 159.473 137.959Z" fill="#F0F4FF"/>
<path d="M140.911 143.059H138.428C137.791 143.059 137.279 142.547 137.279 141.91C137.279 141.273 137.791 140.761 138.428 140.761H140.911C141.549 140.761 142.06 141.273 142.06 141.91C142.06 142.547 141.549 143.059 140.911 143.059Z" fill="#F0F4FF"/>
<path d="M159.473 143.059H144.82C144.183 143.059 143.671 142.547 143.671 141.91C143.671 141.273 144.183 140.761 144.82 140.761H159.473C160.111 140.761 160.622 141.273 160.622 141.91C160.622 142.547 160.111 143.059 159.473 143.059Z" fill="#F0F4FF"/>
<path d="M159.473 132.86H153.115C152.477 132.86 151.966 132.348 151.966 131.711C151.966 131.073 152.477 130.562 153.115 130.562H159.473C160.11 130.562 160.622 131.073 160.622 131.711C160.622 132.348 160.11 132.86 159.473 132.86Z" fill="#F0F4FF"/>
<path d="M100.357 289.641C98.9903 289.641 97.7154 290.018 96.6166 290.664C96.1805 286.747 92.859 283.711 88.8245 283.711C84.4965 283.711 80.9821 287.217 80.9821 291.553C80.9821 291.847 80.9989 292.132 81.0324 292.409C80.6718 292.342 80.3027 292.308 79.9253 292.308C76.6206 292.308 73.9365 294.992 73.9365 298.297C73.9365 301.602 76.6206 304.286 79.9253 304.286H100.357C104.4 304.286 107.68 301.006 107.68 296.963C107.68 292.92 104.4 289.641 100.357 289.641Z" fill="white"/>
<path d="M48.405 258.212C48.2036 257.114 48.2372 255.998 48.5056 254.925C49.4282 251.318 50.4851 244.524 48.1365 237.193C44.2195 224.956 28.3418 214.127 28.3418 214.127C28.3418 214.127 32.653 232.177 36.1926 239.869C38.7844 245.497 43.3221 251.905 45.8467 255.277C46.5429 256.216 47.021 257.29 47.2307 258.439C49.7973 272.648 49.4282 283.644 49.4198 283.811L50.6109 283.862C50.6109 283.694 50.9967 272.58 48.3966 258.221L48.405 258.212Z" fill="#DEE3FC"/>
<path d="M61.0621 246.705C64.2159 236.732 65.6837 224.981 65.6837 224.981C65.6837 224.981 51.4499 236.732 50.2757 245.816C49.5627 251.385 50.4518 255.847 51.2486 258.481C51.5841 259.596 51.7099 260.762 51.5841 261.92C50.1415 275.298 51.2738 285.548 51.2906 285.707L52.3642 285.581C52.3474 285.43 51.2989 275.894 52.5319 263.253C52.6997 261.526 53.3958 259.89 54.4946 258.531C56.5328 256.015 59.4433 251.813 61.0621 246.696V246.705Z" fill="#B4C1EF"/>
<path d="M75.5394 224.519C75.5394 224.519 60.1985 230.215 56.1892 242.737C53.7484 250.362 54.8975 257.407 55.8537 261.056C56.1221 262.079 56.1053 263.153 55.8537 264.176C52.2638 278.594 52.2051 293.516 52.2051 293.709H53.4297C53.4297 293.516 53.4884 278.947 56.9525 264.813C57.2964 263.413 57.9086 262.088 58.7726 260.93C61.3895 257.407 65.8433 251.066 68.4183 245.472C72.0502 237.604 75.5394 224.519 75.5394 224.519Z" fill="#DEE3FC"/>
<path d="M48.4722 277.378C48.0947 272.136 46.6605 267.414 44.9326 263.455C44.5887 262.658 44.4629 261.794 44.5719 260.938C44.79 259.286 44.8739 256.711 44.2113 253.448C42.9699 247.3 34.8088 234.023 22.999 233.243C22.999 233.243 27.0754 239.793 29.1723 245.279C31.8228 252.215 35.614 259.471 41.8963 262.255C43.0035 262.742 43.8674 263.664 44.3287 264.78C45.8385 268.454 47.0547 272.74 47.3986 277.462L48.4722 277.387V277.378Z" fill="#B4C1EF"/>
<path d="M40.4784 304.277H59.9712L65.029 273.369C65.2554 272.002 64.1986 270.76 62.8146 270.76H37.6434C36.2595 270.76 35.2026 272.002 35.4291 273.369L40.4868 304.277H40.4784Z" fill="#DEE3FC"/>
<path d="M0.469727 304.277H545.849" stroke="white" stroke-width="1.11" stroke-miterlimit="10" stroke-linecap="round"/>
</g>
<defs>
<clipPath id="clip0_127_85704">
<rect width="546.31" height="304.747" fill="white"/>
</clipPath>
</defs>
</svg>
